<?xml version="1.0" encoding="UTF-8"?>
<svg version="1.0" viewBox="0 0 680.61 497.52" xmlns="http://www.w3.org/2000/svg">
 <g transform="translate(-177.47 -385.92)">
  <g transform="matrix(1.366 0 0 1.32 -64.937 -123.52)">
   <path d="m257.48 419.68l2.0677 28.175-2.1622 40.365 3.2432 23.985s-4.9052 25.056-0.54054 35.685 18.048 22.541 29.189 28.665 42.703 9.945 42.703 9.945l30.27-8.775s16.605-23.66 19.242-35.217c2.6366-11.557-2.0006-38.844-2.0006-38.844l2.2182-21.294-2.7027-29.25 4.8649-22.815s0.49661-23.31-2.7027-18.72c-22.639 32.475-107.22 14.106-119.03 2.9253-1.9082-1.8066-4.6584 5.1701-4.6584 5.1701z" fill="#e3dbdb" fill-rule="evenodd" stroke="#000" stroke-linecap="round" stroke-linejoin="round" stroke-width="1.9"/>
   <path d="m178.39 680.06l234.8 81.793 261.6-164.29v-31.73l-198.14-45.832-294.74 126.92-3.5256 33.14z" fill="#784421" fill-rule="evenodd" stroke="#000" stroke-linecap="round" stroke-linejoin="round" stroke-width="1.9"/>
   <path d="m181.92 646.22l228.46 74.742 264.42-156.54-200.25-45.127-292.62 126.92z" fill="#a05a2c" fill-rule="evenodd" stroke="#000" stroke-linecap="round" stroke-linejoin="round" stroke-width="1.9"/>
   <path d="m556.34 591.92l-3.5256 9.1665-8.4614 7.0511-6.346 0.70511-11.282-2.1153-50.063-25.384-32.435-16.923 33.14-23.269 73.332 26.089 5.6409 24.679z" fill="#f9f9f9" fill-rule="evenodd" stroke="#000" stroke-linecap="round" stroke-linejoin="round" stroke-width="1.9"/>
   <path d="m453.44 554.12l4.2294-11.418 16.164-11.418 19.038-4.2307 33.845-0.70511 26.794 6.346 23.269 11.987 17.977 17.398-1.5718 10.396-12.397 12.379-27 12.121-29.186-5.7569-64.598-27.987-6.5632-9.112z" fill="#fd5" fill-rule="evenodd" stroke="#000" stroke-linecap="round" stroke-linejoin="round" stroke-width="1.9"/>
   <path d="m506.27 611.67l-2.1153 14.807-5.6409 2.1154-11.282 5.6409-9.1665-1.4102-19.743-8.4614-45.127-21.153-20.448-7.0511-7.0511-5.6409-1.4102-13.397 9.8716-5.6409 79.678 19.038 32.435 21.153z" fill="#f9f9f9" fill-rule="evenodd" stroke="#000" stroke-linecap="round" stroke-linejoin="round" stroke-width="1.9"/>
   <path d="m545.76 631.41l-48.653-13.397-33.14-14.102-38.781-22.564-51.473-0.70511-19.743-7.7563 40.897-14.102 45.832-5.6409 50.768 4.2307 40.897 28.205 16.923 40.897-3.5256 4.9358z" fill="#e9ddaf" fill-rule="evenodd" stroke="#000" stroke-linecap="round" stroke-linejoin="round" stroke-width="1.9"/>
   <path d="m594.77 561.81s-26.983 26.546-36.321 24.468c-9.2879-2.067-29.615-13.397-29.615-13.397l-58.524-17.628-12.68-12.683 5.3257-8.6043 10.88-5.507 20.448-7.0511 18.333-1.4102 39.486 7.7563 23.269 9.1665 15.513 14.807 3.8855 10.083z" fill="#ffe680" fill-rule="evenodd" stroke="#000" stroke-linecap="round" stroke-linejoin="round" stroke-width="1.9"/>
   <path d="m535.81 524.35l-13.081 7.2371-10.705 8.8998-12.012 8.1872-10.349 9.3749 1.0689 5.6507 1.0689 5.6507 1.0689 5.6507 1.0689 5.6507 24.15 7.8143-2.0345-19.644 11.774-9.3423 10.587-9.8174 11.537-8.8672 9.9928-9.5798-8.1662-3.7898c-11.693-2.2992-10.645-2.0502-15.968-3.0753z" fill="#1c241f" fill-rule="evenodd" stroke="#000" stroke-linecap="round" stroke-linejoin="round" stroke-width="1.9"/>
   <path d="m549.21 626.34c-8.4355-2.2149-44.96-12.408-66.915-23.135l-50.063-26.089-52.178-2.1154-25.384-2.1153 45.127-19.038 36.666-5.6409 38.076 4.9358s17.223 6.8193 24.894 10.615c7.6713 3.7953 23.752 14.183 23.752 14.183l12.7 10.458 11.987 25.384 1.3389 12.558z" fill="#f4e3d7" fill-rule="evenodd" stroke="#000" stroke-linecap="round" stroke-linejoin="round" stroke-width="1.9"/>
   <path d="m406.28 562.58c4.2739-4.1692 11.157-4.8175 18.2-4.8175 1.6446 0 2.6626 6.4095 3.747 7.4939 6.6923 6.6923 17.056-2.7921 25.158-4.8175 5.0663-1.2666 4.9841 20.674 7.4939 25.693 1.3704 2.7409 22.231-7.0398 25.693-8.0292 1.5817-0.45192 3.2117-0.7137 4.8175-1.0706 5.9862-1.3303 5.2286 4.8047 1.6058 9.635-2.9113 3.8818 1.2418 7.9685 4.8175 8.5645 4.094 0.68233 9.5452-1.5609 12.847-3.2117 4.2708-2.1354 10.641-1.8058 14.453-0.53528 3.5342 1.1781-7.0768 10.108-7.4939 11.776-1.1819 4.7275 2.378 6.7502 5.3528 7.4939 4.0273 1.0068 8.578-5.8745 12.847-1.6058" fill="none" stroke="#ecdacc" stroke-linecap="round" stroke-linejoin="round" stroke-width="9"/>
   <path d="m410.35 720.96l3.0478 40.189" fill="none" stroke="#000" stroke-linecap="round" stroke-linejoin="round" stroke-width="1.9"/>
   <path d="m356.08 575l-3.5256 21.859 2.1153 14.807 7.7563 17.628 75.447 17.628s29.393 0.65923 33.483-5.6426c4.9648-7.6486 4.6374-33.094 4.6374-33.094l-0.86573-9.9476-2.8651-10.697-116.18-12.54z" fill="#1c241f" fill-rule="evenodd" stroke="#000" stroke-linecap="round" stroke-linejoin="round" stroke-width="1.9"/>
   <path d="m356.79 575l9.1665 12.692 28.205 11.282 28.553 7.7649s22.28 4.5167 29.979 2.8205 16.845-6.8655 19.39-11.297-0.01037-11.628-0.01037-11.628 0.66421-2.8907-5.8285-7.5188-41.057-6.9352-41.057-6.9352l-45.127-2.1153-13.397 3.5256-9.8716 1.4102z" fill="#002b11" fill-rule="evenodd" stroke="#000" stroke-linecap="round" stroke-linejoin="round" stroke-width="1.9"/>
   <path transform="matrix(1.113 0 0 1.2243 -8.0241 -119.98)" d="m405.88 584a4.1237 3.7489 0 1 1 -8.2475 0 4.1237 3.7489 0 1 1 8.2475 0z" fill="#c52626" fill-rule="evenodd" stroke="#000" stroke-linecap="round" stroke-linejoin="round" stroke-width="1.6277"/>
   <path transform="matrix(1.113 0 0 1.2243 -22.77 -119.73)" d="m405.88 584a4.1237 3.7489 0 1 1 -8.2475 0 4.1237 3.7489 0 1 1 8.2475 0z" fill="#c52626" fill-rule="evenodd" stroke="#000" stroke-linecap="round" stroke-linejoin="round" stroke-width="1.6277"/>
   <path transform="matrix(1.113 0 0 1.2243 -54.26 -119.48)" d="m405.88 584a4.1237 3.7489 0 1 1 -8.2475 0 4.1237 3.7489 0 1 1 8.2475 0z" fill="#c52626" fill-rule="evenodd" stroke="#000" stroke-linecap="round" stroke-linejoin="round" stroke-width="1.6277"/>
   <path d="m274.29 639.17l-1.4102 14.807s2.8205 1.4102 4.9358 4.2307c2.1154 2.8205 19.038 8.4614 19.038 8.4614l15.513 0.70511 11.282 5.6409 17.628 7.0511 11.987 3.5256 9.1665-0.70512 8.4614-4.2307 5.6409-9.1665 18.333-18.333-60.64-28.91-43.717 1.4102-16.218 15.513z" fill="#f9f9f9" fill-rule="evenodd" stroke="#000" stroke-linecap="round" stroke-linejoin="round" stroke-width="1.9"/>
   <path d="m251.73 646.92l30.32-4.9358 20.448 0.70512 28.91 10.577 28.91 13.397 17.628 16.218 6.346 4.0254c6.4472 4.0896 17.943-9.6752 25.018-11.782 7.1402-2.1257 18.624-9.8062 21.635-15.896 2.2085-4.4663-3.6415-16.539-3.6415-16.539l-35.961-23.269-38.781-11.282-30.32-1.4102-26.089 2.1153-31.025 16.218-21.153 14.807 7.7562 7.0511z" fill="#bb504a" fill-rule="evenodd" stroke="#000" stroke-linecap="round" stroke-linejoin="round" stroke-width="1.9"/>
   <path d="m251.36 634.73l40.557-4.7305 51.473 9.1665 19.038 12.692 16.218 18.333 18.333 0.70511 9.8716-8.4614 14.102-4.9358 6.346-11.282 0.70511-3.5256-34.551-24.679-39.486-11.282s-30.32-3.5256-38.076-2.8205c-7.7563 0.70512-26.089 6.346-26.089 6.346l-22.72 11.987-15.722 12.487z" fill="#ca6c62" fill-rule="evenodd" stroke="#000" stroke-linecap="round" stroke-linejoin="round" stroke-width="1.9"/>
   <path d="m351.15 565.13l2.1153 10.577 13.397 15.513s16.923 6.346 16.923 3.5256c0-2.8205 3.5256-13.397 3.5256-13.397l-16.218-18.333-9.8716 2.1153h-9.8716z" fill="#d7f4d7" fill-rule="evenodd" stroke="#000" stroke-linecap="round" stroke-linejoin="round" stroke-width="1.9"/>
   <path d="m354.39 574.76l13.434 15.225 13.183 4.478 1.8746-6.4567 3.7489-13.746-12.246-10.08-10.643 1.9577-10.497 0.54158 1.146 8.081z" fill="#fff" fill-rule="evenodd" stroke="#339356" stroke-linecap="round" stroke-linejoin="round" stroke-width="1.9"/>
   <path d="m371.6 567.95l-4.204-12.308 2.1153-8.4614 25.357 8.0775 8.4614 16.923 3.5256 7.7563-15.513 5.6409-19.743-17.628z" fill="#d7f4d7" fill-rule="evenodd" stroke="#000" stroke-linecap="round" stroke-linejoin="round" stroke-width="1.9"/>
   <path d="m276.42 625.74l55.233-16.995" fill="#6c5353" fill-rule="evenodd" stroke="#dfa9a9" stroke-linecap="round" stroke-linejoin="round" stroke-width="3"/>
   <path d="m324.15 628.49l47.985-11.746" fill="#dfa9a9" fill-rule="evenodd" stroke="#dfa9a9" stroke-linecap="round" stroke-linejoin="round" stroke-width="3"/>
   <path d="m354.57 640.93l45.24-12.151" fill="#dfa9a9" fill-rule="evenodd" stroke="#dfa9a9" stroke-linecap="round" stroke-linejoin="round" stroke-width="2.7979"/>
   <path d="m374.63 656.11l40.515-15.836" fill="#dfa9a9" fill-rule="evenodd" stroke="#dfa9a9" stroke-linecap="round" stroke-linejoin="round" stroke-width="2.8888"/>
   <path d="m369.01 555.39l3.8736 11.892 7.8728 6.8734 10.747 9.2261 13.329-4.3111-11.247-22.493-7.8311-2.187-8.4974-3.4989-6.2481-2.1663-1.9994 6.6649z" fill="#fff" fill-rule="evenodd" stroke="#339356" stroke-linecap="round" stroke-linejoin="round" stroke-width="1.9"/>
   <path transform="matrix(1.113 0 0 1.2243 -51.261 -128.98)" d="m405.88 584a4.1237 3.7489 0 1 1 -8.2475 0 4.1237 3.7489 0 1 1 8.2475 0z" fill="#c52626" fill-rule="evenodd" stroke="#000" stroke-linecap="round" stroke-linejoin="round" stroke-width="1.6277"/>
   <path transform="matrix(1.113 0 0 1.2243 -43.763 -132.48)" d="m405.88 584a4.1237 3.7489 0 1 1 -8.2475 0 4.1237 3.7489 0 1 1 8.2475 0z" fill="#c52626" fill-rule="evenodd" stroke="#000" stroke-linecap="round" stroke-linejoin="round" stroke-width="1.6277"/>
   <path transform="matrix(1.113 0 0 1.2243 -45.013 -124.98)" d="m405.88 584a4.1237 3.7489 0 1 1 -8.2475 0 4.1237 3.7489 0 1 1 8.2475 0z" fill="#c52626" fill-rule="evenodd" stroke="#000" stroke-linecap="round" stroke-linejoin="round" stroke-width="1.6277"/>
   <path transform="matrix(1.113 0 0 1.2243 -57.759 -122.73)" d="m405.88 584a4.1237 3.7489 0 1 1 -8.2475 0 4.1237 3.7489 0 1 1 8.2475 0z" fill="#c52626" fill-rule="evenodd" stroke="#000" stroke-linecap="round" stroke-linejoin="round" stroke-width="1.6277"/>
   <path transform="matrix(1.113 0 0 1.2243 -48.762 -119.23)" d="m405.88 584a4.1237 3.7489 0 1 1 -8.2475 0 4.1237 3.7489 0 1 1 8.2475 0z" fill="#c52626" fill-rule="evenodd" stroke="#000" stroke-linecap="round" stroke-linejoin="round" stroke-width="1.6277"/>
   <path transform="matrix(1.113 0 0 1.2243 -50.511 -124.23)" d="m405.88 584a4.1237 3.7489 0 1 1 -8.2475 0 4.1237 3.7489 0 1 1 8.2475 0z" fill="#c52626" fill-rule="evenodd" stroke="#000" stroke-linecap="round" stroke-linejoin="round" stroke-width="1.6277"/>
   <path transform="matrix(1.113 0 0 1.2243 -64.507 -121.48)" d="m405.88 584a4.1237 3.7489 0 1 1 -8.2475 0 4.1237 3.7489 0 1 1 8.2475 0z" fill="#c52626" fill-rule="evenodd" stroke="#000" stroke-linecap="round" stroke-linejoin="round" stroke-width="1.6277"/>
   <path transform="matrix(1.113 0 0 1.2243 -59.758 -130.23)" d="m405.88 584a4.1237 3.7489 0 1 1 -8.2475 0 4.1237 3.7489 0 1 1 8.2475 0z" fill="#c52626" fill-rule="evenodd" stroke="#000" stroke-linecap="round" stroke-linejoin="round" stroke-width="1.6277"/>
   <path transform="matrix(1.113 0 0 1.2243 -42.264 -116.48)" d="m405.88 584a4.1237 3.7489 0 1 1 -8.2475 0 4.1237 3.7489 0 1 1 8.2475 0z" fill="#c52626" fill-rule="evenodd" stroke="#000" stroke-linecap="round" stroke-linejoin="round" stroke-width="1.6277"/>
   <path transform="matrix(1.113 0 0 1.2243 -37.015 -122.23)" d="m405.88 584a4.1237 3.7489 0 1 1 -8.2475 0 4.1237 3.7489 0 1 1 8.2475 0z" fill="#c52626" fill-rule="evenodd" stroke="#000" stroke-linecap="round" stroke-linejoin="round" stroke-width="1.6277"/>
   <path transform="matrix(1.113 0 0 1.2243 -30.017 -120.48)" d="m405.88 584a4.1237 3.7489 0 1 1 -8.2475 0 4.1237 3.7489 0 1 1 8.2475 0z" fill="#c52626" fill-rule="evenodd" stroke="#000" stroke-linecap="round" stroke-linejoin="round" stroke-width="1.6277"/>
   <path transform="matrix(1.113 0 0 1.2243 -34.766 -116.73)" d="m405.88 584a4.1237 3.7489 0 1 1 -8.2475 0 4.1237 3.7489 0 1 1 8.2475 0z" fill="#c52626" fill-rule="evenodd" stroke="#000" stroke-linecap="round" stroke-linejoin="round" stroke-width="1.6277"/>
   <path transform="matrix(1.113 0 0 1.2243 -37.515 -129.23)" d="m405.88 584a4.1237 3.7489 0 1 1 -8.2475 0 4.1237 3.7489 0 1 1 8.2475 0z" fill="#c52626" fill-rule="evenodd" stroke="#000" stroke-linecap="round" stroke-linejoin="round" stroke-width="1.6277"/>
   <path transform="matrix(1.113 0 0 1.2243 -41.514 -143.47)" d="m405.88 584a4.1237 3.7489 0 1 1 -8.2475 0 4.1237 3.7489 0 1 1 8.2475 0z" fill="#c52626" fill-rule="evenodd" stroke="#000" stroke-linecap="round" stroke-linejoin="round" stroke-width="1.6277"/>
   <path transform="matrix(1.113 0 0 1.2243 -38.39 -137.6)" d="m405.88 584a4.1237 3.7489 0 1 1 -8.2475 0 4.1237 3.7489 0 1 1 8.2475 0z" fill="#c52626" fill-rule="evenodd" stroke="#000" stroke-linecap="round" stroke-linejoin="round" stroke-width="1.6277"/>
   <path transform="matrix(1.113 0 0 1.2243 -22.645 -130.1)" d="m405.88 584a4.1237 3.7489 0 1 1 -8.2475 0 4.1237 3.7489 0 1 1 8.2475 0z" fill="#c52626" fill-rule="evenodd" stroke="#000" stroke-linecap="round" stroke-linejoin="round" stroke-width="1.6277"/>
   <path transform="matrix(1.113 0 0 1.2243 -25.394 -142.6)" d="m405.88 584a4.1237 3.7489 0 1 1 -8.2475 0 4.1237 3.7489 0 1 1 8.2475 0z" fill="#c52626" fill-rule="evenodd" stroke="#000" stroke-linecap="round" stroke-linejoin="round" stroke-width="1.6277"/>
   <path transform="matrix(1.113 0 0 1.2243 -33.141 -140.6)" d="m405.88 584a4.1237 3.7489 0 1 1 -8.2475 0 4.1237 3.7489 0 1 1 8.2475 0z" fill="#c52626" fill-rule="evenodd" stroke="#000" stroke-linecap="round" stroke-linejoin="round" stroke-width="1.6277"/>
   <path transform="matrix(1.113 0 0 1.2243 -30.08 -127.29)" d="m405.88 584a4.1237 3.7489 0 1 1 -8.2475 0 4.1237 3.7489 0 1 1 8.2475 0z" fill="#c52626" fill-rule="evenodd" stroke="#000" stroke-linecap="round" stroke-linejoin="round" stroke-width="1.6277"/>
   <path transform="matrix(1.113 0 0 1.2243 -29.58 -134.04)" d="m405.88 584a4.1237 3.7489 0 1 1 -8.2475 0 4.1237 3.7489 0 1 1 8.2475 0z" fill="#c52626" fill-rule="evenodd" stroke="#000" stroke-linecap="round" stroke-linejoin="round" stroke-width="1.6277"/>
   <path transform="matrix(1.113 0 0 1.2243 -23.832 -136.54)" d="m405.88 584a4.1237 3.7489 0 1 1 -8.2475 0 4.1237 3.7489 0 1 1 8.2475 0z" fill="#c52626" fill-rule="evenodd" stroke="#000" stroke-linecap="round" stroke-linejoin="round" stroke-width="1.6277"/>
   <path transform="matrix(1.113 0 0 1.2243 -15.022 -132.98)" d="m405.88 584a4.1237 3.7489 0 1 1 -8.2475 0 4.1237 3.7489 0 1 1 8.2475 0z" fill="#c52626" fill-rule="evenodd" stroke="#000" stroke-linecap="round" stroke-linejoin="round" stroke-width="1.6277"/>
   <path transform="matrix(1.113 0 0 1.2243 -16.459 -139.66)" d="m405.88 584a4.1237 3.7489 0 1 1 -8.2475 0 4.1237 3.7489 0 1 1 8.2475 0z" fill="#c52626" fill-rule="evenodd" stroke="#000" stroke-linecap="round" stroke-linejoin="round" stroke-width="1.6277"/>
   <path transform="matrix(1.113 0 0 1.2243 -28.665 -113.42)" d="m405.88 584a4.1237 3.7489 0 1 1 -8.2475 0 4.1237 3.7489 0 1 1 8.2475 0z" fill="#c52626" fill-rule="evenodd" stroke="#000" stroke-linecap="round" stroke-linejoin="round" stroke-width="1.6277"/>
   <path transform="matrix(1.113 0 0 1.2243 -20.02 -111.23)" d="m405.88 584a4.1237 3.7489 0 1 1 -8.2475 0 4.1237 3.7489 0 1 1 8.2475 0z" fill="#c52626" fill-rule="evenodd" stroke="#000" stroke-linecap="round" stroke-linejoin="round" stroke-width="1.6277"/>
   <path transform="matrix(1.113 0 0 1.2243 -15.772 -117.48)" d="m405.88 584a4.1237 3.7489 0 1 1 -8.2475 0 4.1237 3.7489 0 1 1 8.2475 0z" fill="#c52626" fill-rule="evenodd" stroke="#000" stroke-linecap="round" stroke-linejoin="round" stroke-width="1.6277"/>
   <path transform="matrix(1.113 0 0 1.2243 -12.773 -111.98)" d="m405.88 584a4.1237 3.7489 0 1 1 -8.2475 0 4.1237 3.7489 0 1 1 8.2475 0z" fill="#c52626" fill-rule="evenodd" stroke="#000" stroke-linecap="round" stroke-linejoin="round" stroke-width="1.6277"/>
   <path transform="matrix(1.113 0 0 1.2243 -16.522 -124.98)" d="m405.88 584a4.1237 3.7489 0 1 1 -8.2475 0 4.1237 3.7489 0 1 1 8.2475 0z" fill="#c52626" fill-rule="evenodd" stroke="#000" stroke-linecap="round" stroke-linejoin="round" stroke-width="1.6277"/>
   <path transform="matrix(1.113 0 0 1.2243 -7.7742 -125.48)" d="m405.88 584a4.1237 3.7489 0 1 1 -8.2475 0 4.1237 3.7489 0 1 1 8.2475 0z" fill="#c52626" fill-rule="evenodd" stroke="#000" stroke-linecap="round" stroke-linejoin="round" stroke-width="1.6277"/>
   <path transform="matrix(1.113 0 0 1.2243 -8.0241 -133.48)" d="m405.88 584a4.1237 3.7489 0 1 1 -8.2475 0 4.1237 3.7489 0 1 1 8.2475 0z" fill="#c52626" fill-rule="evenodd" stroke="#000" stroke-linecap="round" stroke-linejoin="round" stroke-width="1.6277"/>
   <path transform="matrix(1.113 0 0 1.2243 -5.7748 -114.23)" d="m405.88 584a4.1237 3.7489 0 1 1 -8.2475 0 4.1237 3.7489 0 1 1 8.2475 0z" fill="#c52626" fill-rule="evenodd" stroke="#000" stroke-linecap="round" stroke-linejoin="round" stroke-width="1.6277"/>
   <path transform="matrix(1.113 0 0 1.2243 -2.5258 -122.73)" d="m405.88 584a4.1237 3.7489 0 1 1 -8.2475 0 4.1237 3.7489 0 1 1 8.2475 0z" fill="#c52626" fill-rule="evenodd" stroke="#000" stroke-linecap="round" stroke-linejoin="round" stroke-width="1.6277"/>
   <path transform="matrix(1.113 0 0 1.2243 -.77631 -128.48)" d="m405.88 584a4.1237 3.7489 0 1 1 -8.2475 0 4.1237 3.7489 0 1 1 8.2475 0z" fill="#c52626" fill-rule="evenodd" stroke="#000" stroke-linecap="round" stroke-linejoin="round" stroke-width="1.6277"/>
   <path transform="matrix(1.113 0 0 1.2243 -7.2743 -139.47)" d="m405.88 584a4.1237 3.7489 0 1 1 -8.2475 0 4.1237 3.7489 0 1 1 8.2475 0z" fill="#c52626" fill-rule="evenodd" stroke="#000" stroke-linecap="round" stroke-linejoin="round" stroke-width="1.6277"/>
   <path transform="matrix(1.113 0 0 1.2243 6.7214 -117.23)" d="m405.88 584a4.1237 3.7489 0 1 1 -8.2475 0 4.1237 3.7489 0 1 1 8.2475 0z" fill="#c52626" fill-rule="evenodd" stroke="#000" stroke-linecap="round" stroke-linejoin="round" stroke-width="1.6277"/>
   <path transform="matrix(1.113 0 0 1.2243 .22338 -116.48)" d="m405.88 584a4.1237 3.7489 0 1 1 -8.2475 0 4.1237 3.7489 0 1 1 8.2475 0z" fill="#c52626" fill-rule="evenodd" stroke="#000" stroke-linecap="round" stroke-linejoin="round" stroke-width="1.6277"/>
   <path transform="matrix(1.113 0 0 1.2243 -.52639 -132.73)" d="m405.88 584a4.1237 3.7489 0 1 1 -8.2475 0 4.1237 3.7489 0 1 1 8.2475 0z" fill="#c52626" fill-rule="evenodd" stroke="#000" stroke-linecap="round" stroke-linejoin="round" stroke-width="1.6277"/>
   <path transform="matrix(1.113 0 0 1.2243 8.4709 -136.22)" d="m405.88 584a4.1237 3.7489 0 1 1 -8.2475 0 4.1237 3.7489 0 1 1 8.2475 0z" fill="#c52626" fill-rule="evenodd" stroke="#000" stroke-linecap="round" stroke-linejoin="round" stroke-width="1.6277"/>
   <path transform="matrix(1.113 0 0 1.2243 15.219 -129.48)" d="m405.88 584a4.1237 3.7489 0 1 1 -8.2475 0 4.1237 3.7489 0 1 1 8.2475 0z" fill="#c52626" fill-rule="evenodd" stroke="#000" stroke-linecap="round" stroke-linejoin="round" stroke-width="1.6277"/>
   <path transform="matrix(1.113 0 0 1.2243 21.217 -127.23)" d="m405.88 584a4.1237 3.7489 0 1 1 -8.2475 0 4.1237 3.7489 0 1 1 8.2475 0z" fill="#c52626" fill-rule="evenodd" stroke="#000" stroke-linecap="round" stroke-linejoin="round" stroke-width="1.6277"/>
   <path transform="matrix(1.113 0 0 1.2243 7.7211 -129.98)" d="m405.88 584a4.1237 3.7489 0 1 1 -8.2475 0 4.1237 3.7489 0 1 1 8.2475 0z" fill="#c52626" fill-rule="evenodd" stroke="#000" stroke-linecap="round" stroke-linejoin="round" stroke-width="1.6277"/>
   <path transform="matrix(1.113 0 0 1.2243 13.719 -123.73)" d="m405.88 584a4.1237 3.7489 0 1 1 -8.2475 0 4.1237 3.7489 0 1 1 8.2475 0z" fill="#c52626" fill-rule="evenodd" stroke="#000" stroke-linecap="round" stroke-linejoin="round" stroke-width="1.6277"/>
   <path transform="matrix(1.113 0 0 1.2243 3.9722 -124.73)" d="m405.88 584a4.1237 3.7489 0 1 1 -8.2475 0 4.1237 3.7489 0 1 1 8.2475 0z" fill="#c52626" fill-rule="evenodd" stroke="#000" stroke-linecap="round" stroke-linejoin="round" stroke-width="1.6277"/>
   <path transform="matrix(1.113 0 0 1.2243 -7.5243 -109.48)" d="m405.88 584a4.1237 3.7489 0 1 1 -8.2475 0 4.1237 3.7489 0 1 1 8.2475 0z" fill="#c52626" fill-rule="evenodd" stroke="#000" stroke-linecap="round" stroke-linejoin="round" stroke-width="1.6277"/>
   <path transform="matrix(1.113 0 0 1.2243 .72323 -108.73)" d="m405.88 584a4.1237 3.7489 0 1 1 -8.2475 0 4.1237 3.7489 0 1 1 8.2475 0z" fill="#c52626" fill-rule="evenodd" stroke="#000" stroke-linecap="round" stroke-linejoin="round" stroke-width="1.6277"/>
   <path transform="matrix(1.113 0 0 1.2243 8.2209 -109.73)" d="m405.88 584a4.1237 3.7489 0 1 1 -8.2475 0 4.1237 3.7489 0 1 1 8.2475 0z" fill="#c52626" fill-rule="evenodd" stroke="#000" stroke-linecap="round" stroke-linejoin="round" stroke-width="1.6277"/>
   <path transform="matrix(1.113 0 0 1.2243 14.969 -112.48)" d="m405.88 584a4.1237 3.7489 0 1 1 -8.2475 0 4.1237 3.7489 0 1 1 8.2475 0z" fill="#c52626" fill-rule="evenodd" stroke="#000" stroke-linecap="round" stroke-linejoin="round" stroke-width="1.6277"/>
   <path transform="matrix(1.113 0 0 1.2243 20.967 -114.73)" d="m405.88 584a4.1237 3.7489 0 1 1 -8.2475 0 4.1237 3.7489 0 1 1 8.2475 0z" fill="#c52626" fill-rule="evenodd" stroke="#000" stroke-linecap="round" stroke-linejoin="round" stroke-width="1.6277"/>
   <path transform="matrix(1.113 0 0 1.2243 15.969 -118.48)" d="m405.88 584a4.1237 3.7489 0 1 1 -8.2475 0 4.1237 3.7489 0 1 1 8.2475 0z" fill="#c52626" fill-rule="evenodd" stroke="#000" stroke-linecap="round" stroke-linejoin="round" stroke-width="1.6277"/>
   <path transform="matrix(1.0789 0 0 .72959 -10.027 113.91)" d="m365.6 415.91a58.881 41.752 0 1 1 -117.76 0 58.881 41.752 0 1 1 117.76 0z" fill="#f0e8e8" fill-rule="evenodd" stroke="#000" stroke-linecap="round" stroke-linejoin="round" stroke-width="2.1415"/>
   <path transform="matrix(1.0386 0 0 .7937 -14.328 75.103)" d="m372.02 431.7a49.781 27.032 0 1 1 -99.562 0 49.781 27.032 0 1 1 99.562 0z" fill="#c5baba" fill-rule="evenodd" stroke="#000" stroke-linecap="round" stroke-linejoin="round" stroke-width="2.0926"/>
   <path transform="matrix(.92473 0 0 .53239 22.649 194.36)" d="m372.02 431.7a49.781 27.032 0 1 1 -99.562 0 49.781 27.032 0 1 1 99.562 0z" fill="#82bd7d" fill-rule="evenodd" stroke="#000" stroke-linecap="round" stroke-linejoin="round" stroke-width="2.7079"/>
   <path d="m260.09 441.43l-0.0947 7.3013-0.28409 7.3013-0.28409 6.7331-0.75758 14.025-0.47471 6.8303-0.09594 8.2507s3.9832 17.735 3.6039 19.253c-0.18964 0.75857-1.0429 6.447-1.7541 11.378-0.71116 4.9307-0.80672 9.1982-0.80672 9.1982l25.697 15.456 36.79 3.0343s5.31-3.0343 2.2757-3.4135c-3.0343-0.37928-34.894-11.758-34.894-11.758l52.72 0.75856-36.032-14.033-32.618-8.7235 3.7928-5.3099 36.79-0.37929 26.929 4.9307 10.62-8.7235-42.859-11.378-21.998-6.4478 4.5514-8.7235 3.4135-2.2757 37.549 9.8613 22.757-7.2064 10.999-10.241s-35.652 0.75857-37.549 0.75857c-1.8964 0-54.237-12.516-54.237-12.516l-10.241-12.896-3.5092-1.0441z" fill="#e2d4d4" fill-rule="evenodd"/>
   <path d="m346.11 475.73c0.07466 4.8872-6.1229 3.4894-9.2372 4.8776-2.059-0.50251-6.4917 4.7251-2.371 4.3595 3.1331-0.4731 7.7443-3.1018 9.924-2.5426-0.51404 3.7026-5.1017 2.8023-7.8989 4.2275-2.7248 1.0444-5.9746 1.8965-7.9571 4.5555 1.0725 2.357 4.671-0.27941 6.8776-0.55258 1.9264-0.29984 4.6388-3.0361 5.3454-1.9966-0.95954 4.031-4.0644 5.773-7.2992 6.3568-1.6971-0.03305-6.5388 2.1332-3.9201 3.6078 2.3866 0.45187 6.6602-3.1417 7.915-1.4603-1.9433 3.1232-5.3972 5.3492-7.897 8.0685-2.967 3.5795 3.0792 3.6583 4.4457 0.85601 2.9185-3.4679 5.1094-7.4369 8.0559-10.841 3.9385-2.1602 8.4291-2.5318 12.585-4.1892 3.6122-2.122-0.01811 3.3854 0.67922 5.3392 0.57888 4.8059-3.4819 3.8447-5.825 6.3229 0.82211 3.3817 9.415-0.15309 10.976-3.4403 1.6145-3.5104-2.0584-7.8681 0.58433-10.32 1.9913-0.46603 8.1885-1.5211 6.2002-4.1379-2.6867 0.17695-9.3546 3.8182-6.3291-1.9532 2.0837-1.7894 7.7098-0.75394 7.4955-4.2595-2.9909-1.2164-6.4958 1.0656-9.7779 1.488-4.0418 1.2547-8.0836 2.157-12.125 3.4117 0.14385-4.7901 5.9582-3.8755 9.1881-5.0877 2.904-1.5706 8.2917-1.0145 9.3616-4.4657-2.8303-1.3575-6.7735 1.05-10.085 1.4961-2.0986 0.23813-8.4027 4.6776-5.8679 0.14229 3.2207-2.8519 7.583-2.6656 11.266-4.3046 1.9038-0.92261 5.6796-1.5862 4.3324-4.4023-3.8672-0.34861-5.4105 1.1122-9.3695 1.8691-1.7482 0.0639-4.4977 2.3198-4.8394 1.4416-0.31807-2.9582-4.7819-2.3851-4.025 0.36441-2.2366 3.1488-7.5567 3.1025-9.8607 3.9613-1.8646 0.66898-7.0725 2.9315-4.6272 5.2766 3.4137-0.19966 6.8336-2.082 10.262-2.8836 1.2728-0.39511 2.5456-0.79021 3.8183-1.1853zm10.834 12.003c-4.5034 1.3979-9.0069 2.7959-13.51 4.1939 0.76203-4.6036 5.7686-5.957 9.345-6.6578 2.7999-1.825 5.5576-1.0442 4.171 2.3677l-0.00557 0.09622zm-14.043 8.8856c-0.5876 3.0485 4.489 6.6106 6.6166 3.7499 0.35579-2.537-4.2672-6.0937-6.6166-3.7499zm10.665 31.471c3.4888-3.2868-2.7558-4.0232-4.5261-2.4315-6.3067 1.9577-14.023 3.9155-20.33 5.8732-3.3878 2.7522 3.6146 4.4354 5.3049 2.6272l19.551-6.069zm-18.724 10.1c-4.2535 0.70384-4.7687 5.8795-4.4952 8.9777-1.249 3.6459 0.83095 7.2086 4.8647 4.8483 4.4102-1.7618 9.1296-2.1027 13.335-4.5471 3.7488-2.737 1.7117-6.8974 2.6574-10.377 0.5046-4.6712-4.9964-2.7358-7.8813-1.4781-2.8289 0.81903-5.6556 1.6884-8.4811 2.5762zm0.04956 11.182c-2.5922-1.0487-0.62201-4.4516 0.11234-6.5781 3.7728-2.2166 7.4871-3.1604 11.374-4.6557 2.1975 1.2617 1.4014 5.242 0.18893 7.2292-3.7278 2.2141-7.822 2.4222-11.675 4.0046zm-6.6931-25.23c-3.6502 3.2212 2.8315 4.9394 4.6822 3.2219 8.571-2.6606 17.142-5.3213 25.713-7.9819 3.47 1.7242 0.10287 7.3991 0.94242 10.754-0.32159 5.6485 0.94998 6.7153 0.58315 12.371-1.4208 4.2107-9.6614 5.477-10.126 10.018 2.779 1.6892 9.9565-3.6106 12.767-6.4943 1.8646-3.7201 1.6046-5.9863 2.2833-9.7679 0.39953-6.6992-1.6431-11.993-1.3628-18.674-1.0063-3.5447-6.7258-3.0842-9.4718-2.4992-8.9637 2.7825-17.046 6.2697-26.01 9.0523z" fill="#0055d4"/>
   <path d="m313.75 417.79l-12.38 1.7686-12.734 5.3058-2.476 2.8298 8.843 4.2446 6.367-5.3058 3.1835 3.1835 9.1967 5.6595 11.673-6.7207 11.319 3.1835 11.673-1.4149 13.441-6.0132-10.258-7.0744-6.367-1.7686-15.564 6.0132-7.4281-7.4281-8.4893 3.5372z" fill="#8bbb86" fill-rule="evenodd"/>
  </g>
 </g>
</svg>
